<svg
          xmlns="http://www.w3.org/2000/svg"
          xmlns:xlink="http://www.w3.org/1999/xlink"
          width="84"
          zoomAndPan="magnify"
          viewBox="-4 -4 371 326.749988"
          preserveAspectRatio="xMidYMid meet"
          version="1.0"
        >
          <defs>
            <clipPath id="ef7deac93c">
              <path
                d="M 0.707031 0.726562 L 362.558594 0.726562 L 362.558594 197 L 0.707031 197 Z M 0.707031 0.726562 "
                clip-rule="nonzero"
              />
            </clipPath>
            <clipPath id="a3415f8b70">
              <path
                d="M 0.707031 138.140625 L 362.558594 138.140625 L 362.558594 257.800781 L 0.707031 257.800781 Z M 0.707031 138.140625 "
                clip-rule="nonzero"
              />
            </clipPath>
            <clipPath id="154b599ce4">
              <path
                d="M 0.707031 198 L 362.558594 198 L 362.558594 317.703125 L 0.707031 317.703125 Z M 0.707031 198 "
                clip-rule="nonzero"
              />
            </clipPath>
          </defs>
          <g clip-path="url(#ef7deac93c)">
            <path
              fill="#3C78EC"
              d="M 181.632812 196.945312 C 180.441406 196.945312 179.234375 196.664062 178.148438 196.085938 L 4.761719 105.523438 C 2.273438 104.226562 0.707031 101.660156 0.707031 98.835938 C 0.707031 96.015625 2.273438 93.449219 4.761719 92.148438 L 178.148438 1.585938 C 180.335938 0.4375 182.945312 0.4375 185.128906 1.585938 L 358.515625 92.148438 C 360.988281 93.449219 362.558594 96.015625 362.558594 98.835938 C 362.558594 101.660156 360.988281 104.226562 358.5 105.523438 L 185.113281 196.085938 C 184.03125 196.664062 182.820312 196.945312 181.632812 196.945312 Z M 24.542969 98.835938 L 181.632812 180.90625 L 338.71875 98.835938 L 181.632812 16.773438 Z M 24.542969 98.835938 "
              stroke="#3C78EC"
              stroke-width="2"
              stroke-linejoin="round"
              fill-opacity="1"
              fill-rule="nonzero"
            />
          </g>
          <g clip-path="url(#a3415f8b70)">
            <path
              fill="#3C78EC"
              d="M 181.632812 257.324219 C 180.441406 257.324219 179.234375 257.039062 178.148438 256.464844 L 4.761719 165.902344 C 2.273438 164.605469 0.707031 162.039062 0.707031 159.214844 C 0.707031 156.390625 2.273438 153.824219 4.761719 152.527344 L 29.972656 139.363281 C 33.652344 137.476562 38.214844 138.851562 40.144531 142.566406 C 42.082031 146.265625 40.648438 150.820312 36.953125 152.753906 L 24.542969 159.214844 L 181.632812 241.28125 L 338.71875 159.214844 L 326.328125 152.738281 C 322.632812 150.804688 321.199219 146.246094 323.128906 142.550781 C 325.058594 138.851562 329.628906 137.464844 333.308594 139.347656 L 358.515625 152.511719 C 360.988281 153.824219 362.558594 156.390625 362.558594 159.214844 C 362.558594 162.039062 360.988281 164.605469 358.5 165.902344 L 185.113281 256.464844 C 184.03125 257.039062 182.820312 257.324219 181.632812 257.324219 Z M 181.632812 257.324219 "
              stroke="#3C78EC"
              stroke-width="5"
              stroke-linejoin="round"
              fill-opacity="1"
              fill-rule="nonzero"
            />
          </g>
          <g clip-path="url(#154b599ce4)">
            <path
              fill="#3C78EC"
              d="M 181.632812 317.703125 C 180.441406 317.703125 179.234375 317.414062 178.148438 316.84375 L 4.761719 226.273438 C 2.273438 224.976562 0.707031 222.410156 0.707031 219.589844 C 0.707031 216.765625 2.273438 214.203125 4.761719 212.902344 L 29.972656 199.742188 C 33.652344 197.839844 38.214844 199.242188 40.144531 202.941406 C 42.082031 206.636719 40.648438 211.199219 36.953125 213.128906 L 24.542969 219.589844 L 181.632812 301.65625 L 338.71875 219.589844 L 326.328125 213.113281 C 322.632812 211.183594 321.199219 206.625 323.128906 202.929688 C 325.058594 199.230469 329.628906 197.839844 333.308594 199.726562 L 358.515625 212.886719 C 360.988281 214.203125 362.558594 216.765625 362.558594 219.589844 C 362.558594 222.410156 360.988281 224.976562 358.5 226.273438 L 185.113281 316.84375 C 184.03125 317.414062 182.820312 317.703125 181.632812 317.703125 Z M 181.632812 317.703125 "
              stroke="#3C78EC"
              stroke-width="8"
              stroke-linejoin="round"
              fill-opacity="1"
              fill-rule="nonzero"
            />
          </g>
        </svg>